<svg xmlns="http://www.w3.org/2000/svg" viewBox="956.0 116.0 552.0 552.0" width="100%" style="height:auto;display:block"><defs><mask id="f3_m_3_2_1_3" maskUnits="userSpaceOnUse" x="956.0" y="116.0" width="552.0" height="552.0"><rect x="956.0" y="116.0" width="552.0" height="552.0" fill="black"/><line x1="1120.00" y1="364.00" x2="1428.00" y2="364.00" stroke="white" stroke-width="54" stroke-linecap="butt"/></mask><mask id="f3_m_3_2_2_3" maskUnits="userSpaceOnUse" x="956.0" y="116.0" width="552.0" height="552.0"><rect x="956.0" y="116.0" width="552.0" height="552.0" fill="black"/><line x1="1120.00" y1="476.00" x2="1408.00" y2="476.00" stroke="white" stroke-width="54" stroke-linecap="butt"/></mask><mask id="f3_m_4_2_1_3" maskUnits="userSpaceOnUse" x="956.0" y="116.0" width="552.0" height="552.0"><rect x="956.0" y="116.0" width="552.0" height="552.0" fill="black"/><line x1="1120.00" y1="364.00" x2="1428.00" y2="364.00" stroke="white" stroke-width="54" stroke-linecap="butt"/></mask><mask id="f3_m_4_2_2_3" maskUnits="userSpaceOnUse" x="956.0" y="116.0" width="552.0" height="552.0"><rect x="956.0" y="116.0" width="552.0" height="552.0" fill="black"/><line x1="1120.00" y1="476.00" x2="1408.00" y2="476.00" stroke="white" stroke-width="54" stroke-linecap="butt"/></mask><mask id="f3_m_3_3_1_2" maskUnits="userSpaceOnUse" x="956.0" y="116.0" width="552.0" height="552.0"><rect x="956.0" y="116.0" width="552.0" height="552.0" fill="black"/><line x1="1344.00" y1="308.00" x2="1056.00" y2="308.00" stroke="white" stroke-width="54" stroke-linecap="butt"/></mask><mask id="f3_m_3_3_2_2" maskUnits="userSpaceOnUse" x="956.0" y="116.0" width="552.0" height="552.0"><rect x="956.0" y="116.0" width="552.0" height="552.0" fill="black"/><line x1="1344.00" y1="420.00" x2="1036.00" y2="420.00" stroke="white" stroke-width="54" stroke-linecap="butt"/></mask><mask id="f3_m_4_3_1_2" maskUnits="userSpaceOnUse" x="956.0" y="116.0" width="552.0" height="552.0"><rect x="956.0" y="116.0" width="552.0" height="552.0" fill="black"/><line x1="1344.00" y1="308.00" x2="1056.00" y2="308.00" stroke="white" stroke-width="54" stroke-linecap="butt"/></mask><mask id="f3_m_4_3_2_2" maskUnits="userSpaceOnUse" x="956.0" y="116.0" width="552.0" height="552.0"><rect x="956.0" y="116.0" width="552.0" height="552.0" fill="black"/><line x1="1344.00" y1="420.00" x2="1036.00" y2="420.00" stroke="white" stroke-width="54" stroke-linecap="butt"/></mask><mask id="f3_m_3_4_1_5" maskUnits="userSpaceOnUse" x="956.0" y="116.0" width="552.0" height="552.0"><rect x="956.0" y="116.0" width="552.0" height="552.0" fill="black"/><line x1="1428.00" y1="364.00" x2="1109.27" y2="265.46" stroke="white" stroke-width="54" stroke-linecap="butt"/></mask><mask id="f3_m_3_4_2_5" maskUnits="userSpaceOnUse" x="956.0" y="116.0" width="552.0" height="552.0"><rect x="956.0" y="116.0" width="552.0" height="552.0" fill="black"/><line x1="1408.00" y1="476.00" x2="1056.83" y2="367.43" stroke="white" stroke-width="54" stroke-linecap="butt"/></mask><mask id="f3_m_3_5_1_4" maskUnits="userSpaceOnUse" x="956.0" y="116.0" width="552.0" height="552.0"><rect x="956.0" y="116.0" width="552.0" height="552.0" fill="black"/><line x1="1056.00" y1="308.00" x2="1407.17" y2="416.57" stroke="white" stroke-width="54" stroke-linecap="butt"/></mask><mask id="f3_m_3_5_2_4" maskUnits="userSpaceOnUse" x="956.0" y="116.0" width="552.0" height="552.0"><rect x="956.0" y="116.0" width="552.0" height="552.0" fill="black"/><line x1="1036.00" y1="420.00" x2="1354.73" y2="518.54" stroke="white" stroke-width="54" stroke-linecap="butt"/></mask><mask id="f3_m_4_4_1_5" maskUnits="userSpaceOnUse" x="956.0" y="116.0" width="552.0" height="552.0"><rect x="956.0" y="116.0" width="552.0" height="552.0" fill="black"/><line x1="1428.00" y1="364.00" x2="1109.27" y2="265.46" stroke="white" stroke-width="54" stroke-linecap="butt"/></mask><mask id="f3_m_4_4_2_5" maskUnits="userSpaceOnUse" x="956.0" y="116.0" width="552.0" height="552.0"><rect x="956.0" y="116.0" width="552.0" height="552.0" fill="black"/><line x1="1408.00" y1="476.00" x2="1056.83" y2="367.43" stroke="white" stroke-width="54" stroke-linecap="butt"/></mask><mask id="f3_m_4_5_1_4" maskUnits="userSpaceOnUse" x="956.0" y="116.0" width="552.0" height="552.0"><rect x="956.0" y="116.0" width="552.0" height="552.0" fill="black"/><line x1="1056.00" y1="308.00" x2="1407.17" y2="416.57" stroke="white" stroke-width="54" stroke-linecap="butt"/></mask><mask id="f3_m_4_5_2_4" maskUnits="userSpaceOnUse" x="956.0" y="116.0" width="552.0" height="552.0"><rect x="956.0" y="116.0" width="552.0" height="552.0" fill="black"/><line x1="1036.00" y1="420.00" x2="1354.73" y2="518.54" stroke="white" stroke-width="54" stroke-linecap="butt"/></mask><mask id="f3_m_3_7_1_6" maskUnits="userSpaceOnUse" x="956.0" y="116.0" width="552.0" height="552.0"><rect x="956.0" y="116.0" width="552.0" height="552.0" fill="black"/><line x1="1407.17" y1="416.57" x2="1182.46" y2="249.33" stroke="white" stroke-width="54" stroke-linecap="butt"/></mask><mask id="f3_m_3_7_2_6" maskUnits="userSpaceOnUse" x="956.0" y="116.0" width="552.0" height="552.0"><rect x="956.0" y="116.0" width="552.0" height="552.0" fill="black"/><line x1="1354.73" y1="518.54" x2="1090.90" y2="322.17" stroke="white" stroke-width="54" stroke-linecap="butt"/></mask><mask id="f3_m_3_6_1_7" maskUnits="userSpaceOnUse" x="956.0" y="116.0" width="552.0" height="552.0"><rect x="956.0" y="116.0" width="552.0" height="552.0" fill="black"/><line x1="1109.27" y1="265.46" x2="1373.10" y2="461.83" stroke="white" stroke-width="54" stroke-linecap="butt"/></mask><mask id="f3_m_3_6_2_7" maskUnits="userSpaceOnUse" x="956.0" y="116.0" width="552.0" height="552.0"><rect x="956.0" y="116.0" width="552.0" height="552.0" fill="black"/><line x1="1056.83" y1="367.43" x2="1281.54" y2="534.67" stroke="white" stroke-width="54" stroke-linecap="butt"/></mask><mask id="f3_m_4_7_1_6" maskUnits="userSpaceOnUse" x="956.0" y="116.0" width="552.0" height="552.0"><rect x="956.0" y="116.0" width="552.0" height="552.0" fill="black"/><line x1="1407.17" y1="416.57" x2="1182.46" y2="249.33" stroke="white" stroke-width="54" stroke-linecap="butt"/></mask><mask id="f3_m_4_7_2_6" maskUnits="userSpaceOnUse" x="956.0" y="116.0" width="552.0" height="552.0"><rect x="956.0" y="116.0" width="552.0" height="552.0" fill="black"/><line x1="1354.73" y1="518.54" x2="1090.90" y2="322.17" stroke="white" stroke-width="54" stroke-linecap="butt"/></mask><mask id="f3_m_4_6_1_7" maskUnits="userSpaceOnUse" x="956.0" y="116.0" width="552.0" height="552.0"><rect x="956.0" y="116.0" width="552.0" height="552.0" fill="black"/><line x1="1109.27" y1="265.46" x2="1373.10" y2="461.83" stroke="white" stroke-width="54" stroke-linecap="butt"/></mask><mask id="f3_m_4_6_2_7" maskUnits="userSpaceOnUse" x="956.0" y="116.0" width="552.0" height="552.0"><rect x="956.0" y="116.0" width="552.0" height="552.0" fill="black"/><line x1="1056.83" y1="367.43" x2="1281.54" y2="534.67" stroke="white" stroke-width="54" stroke-linecap="butt"/></mask><mask id="f3_m_1_8_4_8" maskUnits="userSpaceOnUse" x="956.0" y="116.0" width="552.0" height="552.0"><rect x="956.0" y="116.0" width="552.0" height="552.0" fill="black"/><line x1="1374.63" y1="342.49" x2="1055.14" y2="253.53" stroke="white" stroke-width="54" stroke-linecap="butt"/></mask><mask id="f3_m_1_8_1_9" maskUnits="userSpaceOnUse" x="956.0" y="116.0" width="552.0" height="552.0"><rect x="956.0" y="116.0" width="552.0" height="552.0" fill="black"/><line x1="1373.10" y1="461.83" x2="1001.39" y2="358.32" stroke="white" stroke-width="54" stroke-linecap="butt"/></mask><mask id="f3_m_4_9_2_8" maskUnits="userSpaceOnUse" x="956.0" y="116.0" width="552.0" height="552.0"><rect x="956.0" y="116.0" width="552.0" height="552.0" fill="black"/><line x1="1090.90" y1="322.17" x2="1462.61" y2="425.68" stroke="white" stroke-width="54" stroke-linecap="butt"/></mask><mask id="f3_m_4_9_3_9" maskUnits="userSpaceOnUse" x="956.0" y="116.0" width="552.0" height="552.0"><rect x="956.0" y="116.0" width="552.0" height="552.0" fill="black"/><line x1="1089.37" y1="441.51" x2="1408.86" y2="530.47" stroke="white" stroke-width="54" stroke-linecap="butt"/></mask><mask id="f3_m_3_8_4_8" maskUnits="userSpaceOnUse" x="956.0" y="116.0" width="552.0" height="552.0"><rect x="956.0" y="116.0" width="552.0" height="552.0" fill="black"/><line x1="1374.63" y1="342.49" x2="1055.14" y2="253.53" stroke="white" stroke-width="54" stroke-linecap="butt"/></mask><mask id="f3_m_3_8_1_9" maskUnits="userSpaceOnUse" x="956.0" y="116.0" width="552.0" height="552.0"><rect x="956.0" y="116.0" width="552.0" height="552.0" fill="black"/><line x1="1373.10" y1="461.83" x2="1001.39" y2="358.32" stroke="white" stroke-width="54" stroke-linecap="butt"/></mask><mask id="f3_m_2_9_2_8" maskUnits="userSpaceOnUse" x="956.0" y="116.0" width="552.0" height="552.0"><rect x="956.0" y="116.0" width="552.0" height="552.0" fill="black"/><line x1="1090.90" y1="322.17" x2="1462.61" y2="425.68" stroke="white" stroke-width="54" stroke-linecap="butt"/></mask><mask id="f3_m_2_9_3_9" maskUnits="userSpaceOnUse" x="956.0" y="116.0" width="552.0" height="552.0"><rect x="956.0" y="116.0" width="552.0" height="552.0" fill="black"/><line x1="1089.37" y1="441.51" x2="1408.86" y2="530.47" stroke="white" stroke-width="54" stroke-linecap="butt"/></mask></defs><g><circle cx="1204.00" cy="504.00" r="27.00" fill="black"/><circle cx="1204.00" cy="504.00" r="23.00" fill="rgb(61,58,140)"/><circle cx="1148.00" cy="280.00" r="27.00" fill="black"/><circle cx="1148.00" cy="280.00" r="23.00" fill="rgb(61,58,140)"/><line x1="1204.00" y1="504.00" x2="1148.00" y2="280.00" stroke="black" stroke-width="54" stroke-linecap="butt"/><line x1="1204.00" y1="504.00" x2="1148.00" y2="280.00" stroke="rgb(61,58,140)" stroke-width="46" stroke-linecap="butt"/></g><g><circle cx="1316.00" cy="504.00" r="27.00" fill="black"/><circle cx="1316.00" cy="504.00" r="23.00" fill="rgb(123,113,214)"/><circle cx="1260.00" cy="280.00" r="27.00" fill="black"/><circle cx="1260.00" cy="280.00" r="23.00" fill="rgb(123,113,214)"/><line x1="1316.00" y1="504.00" x2="1260.00" y2="280.00" stroke="black" stroke-width="54" stroke-linecap="butt"/><line x1="1316.00" y1="504.00" x2="1260.00" y2="280.00" stroke="rgb(123,113,214)" stroke-width="46" stroke-linecap="butt"/></g><g><circle cx="1120.00" cy="364.00" r="27.00" fill="black"/><circle cx="1120.00" cy="364.00" r="23.00" fill="rgb(255,255,255)"/><circle cx="1344.00" cy="308.00" r="27.00" fill="black"/><circle cx="1344.00" cy="308.00" r="23.00" fill="rgb(255,255,255)"/><line x1="1120.00" y1="364.00" x2="1344.00" y2="308.00" stroke="black" stroke-width="54" stroke-linecap="butt"/><line x1="1120.00" y1="364.00" x2="1344.00" y2="308.00" stroke="rgb(255,255,255)" stroke-width="46" stroke-linecap="butt"/></g><g><circle cx="1120.00" cy="476.00" r="27.00" fill="black"/><circle cx="1120.00" cy="476.00" r="23.00" fill="rgb(85,170,0)"/><circle cx="1344.00" cy="420.00" r="27.00" fill="black"/><circle cx="1344.00" cy="420.00" r="23.00" fill="rgb(85,170,0)"/><line x1="1120.00" y1="476.00" x2="1344.00" y2="420.00" stroke="black" stroke-width="54" stroke-linecap="butt"/><line x1="1120.00" y1="476.00" x2="1344.00" y2="420.00" stroke="rgb(85,170,0)" stroke-width="46" stroke-linecap="butt"/></g><g><circle cx="1204.00" cy="504.00" r="27.00" fill="black"/><circle cx="1204.00" cy="504.00" r="23.00" fill="rgb(61,58,140)"/><line x1="1204.00" y1="504.00" x2="1204.00" y2="196.00" stroke="black" stroke-width="54" stroke-linecap="butt"/><line x1="1204.00" y1="504.00" x2="1204.00" y2="196.00" stroke="rgb(61,58,140)" stroke-width="46" stroke-linecap="butt"/></g><g><circle cx="1316.00" cy="504.00" r="27.00" fill="black"/><circle cx="1316.00" cy="504.00" r="23.00" fill="rgb(123,113,214)"/><line x1="1316.00" y1="504.00" x2="1316.00" y2="216.00" stroke="black" stroke-width="54" stroke-linecap="butt"/><line x1="1316.00" y1="504.00" x2="1316.00" y2="216.00" stroke="rgb(123,113,214)" stroke-width="46" stroke-linecap="butt"/></g><g><circle cx="1344.00" cy="308.00" r="27.00" fill="black"/><circle cx="1344.00" cy="308.00" r="23.00" fill="rgb(255,255,255)"/><line x1="1344.00" y1="308.00" x2="1056.00" y2="308.00" stroke="black" stroke-width="54" stroke-linecap="butt"/><line x1="1344.00" y1="308.00" x2="1056.00" y2="308.00" stroke="rgb(255,255,255)" stroke-width="46" stroke-linecap="butt"/></g><g><circle cx="1344.00" cy="420.00" r="27.00" fill="black"/><circle cx="1344.00" cy="420.00" r="23.00" fill="rgb(85,170,0)"/><line x1="1344.00" y1="420.00" x2="1036.00" y2="420.00" stroke="black" stroke-width="54" stroke-linecap="butt"/><line x1="1344.00" y1="420.00" x2="1036.00" y2="420.00" stroke="rgb(85,170,0)" stroke-width="46" stroke-linecap="butt"/></g><g><circle cx="1148.00" cy="280.00" r="27.00" fill="black"/><circle cx="1148.00" cy="280.00" r="23.00" fill="rgb(61,58,140)"/><line x1="1148.00" y1="280.00" x2="1148.00" y2="568.00" stroke="black" stroke-width="54" stroke-linecap="butt"/><line x1="1148.00" y1="280.00" x2="1148.00" y2="568.00" stroke="rgb(61,58,140)" stroke-width="46" stroke-linecap="butt"/></g><g><circle cx="1260.00" cy="280.00" r="27.00" fill="black"/><circle cx="1260.00" cy="280.00" r="23.00" fill="rgb(123,113,214)"/><line x1="1260.00" y1="280.00" x2="1260.00" y2="588.00" stroke="black" stroke-width="54" stroke-linecap="butt"/><line x1="1260.00" y1="280.00" x2="1260.00" y2="588.00" stroke="rgb(123,113,214)" stroke-width="46" stroke-linecap="butt"/></g><g><circle cx="1120.00" cy="364.00" r="27.00" fill="black"/><circle cx="1120.00" cy="364.00" r="23.00" fill="rgb(255,255,255)"/><line x1="1120.00" y1="364.00" x2="1428.00" y2="364.00" stroke="black" stroke-width="54" stroke-linecap="butt"/><line x1="1120.00" y1="364.00" x2="1428.00" y2="364.00" stroke="rgb(255,255,255)" stroke-width="46" stroke-linecap="butt"/></g><g><circle cx="1120.00" cy="476.00" r="27.00" fill="black"/><circle cx="1120.00" cy="476.00" r="23.00" fill="rgb(85,170,0)"/><line x1="1120.00" y1="476.00" x2="1408.00" y2="476.00" stroke="black" stroke-width="54" stroke-linecap="butt"/><line x1="1120.00" y1="476.00" x2="1408.00" y2="476.00" stroke="rgb(85,170,0)" stroke-width="46" stroke-linecap="butt"/></g><g mask="url(#f3_m_3_2_1_3)"><circle cx="1204.00" cy="504.00" r="27.00" fill="black"/><circle cx="1204.00" cy="504.00" r="23.00" fill="rgb(61,58,140)"/><line x1="1204.00" y1="504.00" x2="1204.00" y2="196.00" stroke="black" stroke-width="54" stroke-linecap="butt"/><line x1="1204.00" y1="504.00" x2="1204.00" y2="196.00" stroke="rgb(61,58,140)" stroke-width="46" stroke-linecap="butt"/></g><g mask="url(#f3_m_3_2_2_3)"><circle cx="1204.00" cy="504.00" r="27.00" fill="black"/><circle cx="1204.00" cy="504.00" r="23.00" fill="rgb(61,58,140)"/><line x1="1204.00" y1="504.00" x2="1204.00" y2="196.00" stroke="black" stroke-width="54" stroke-linecap="butt"/><line x1="1204.00" y1="504.00" x2="1204.00" y2="196.00" stroke="rgb(61,58,140)" stroke-width="46" stroke-linecap="butt"/></g><g mask="url(#f3_m_4_2_1_3)"><circle cx="1316.00" cy="504.00" r="27.00" fill="black"/><circle cx="1316.00" cy="504.00" r="23.00" fill="rgb(123,113,214)"/><line x1="1316.00" y1="504.00" x2="1316.00" y2="216.00" stroke="black" stroke-width="54" stroke-linecap="butt"/><line x1="1316.00" y1="504.00" x2="1316.00" y2="216.00" stroke="rgb(123,113,214)" stroke-width="46" stroke-linecap="butt"/></g><g mask="url(#f3_m_4_2_2_3)"><circle cx="1316.00" cy="504.00" r="27.00" fill="black"/><circle cx="1316.00" cy="504.00" r="23.00" fill="rgb(123,113,214)"/><line x1="1316.00" y1="504.00" x2="1316.00" y2="216.00" stroke="black" stroke-width="54" stroke-linecap="butt"/><line x1="1316.00" y1="504.00" x2="1316.00" y2="216.00" stroke="rgb(123,113,214)" stroke-width="46" stroke-linecap="butt"/></g><g mask="url(#f3_m_3_3_1_2)"><circle cx="1148.00" cy="280.00" r="27.00" fill="black"/><circle cx="1148.00" cy="280.00" r="23.00" fill="rgb(61,58,140)"/><line x1="1148.00" y1="280.00" x2="1148.00" y2="568.00" stroke="black" stroke-width="54" stroke-linecap="butt"/><line x1="1148.00" y1="280.00" x2="1148.00" y2="568.00" stroke="rgb(61,58,140)" stroke-width="46" stroke-linecap="butt"/></g><g mask="url(#f3_m_3_3_2_2)"><circle cx="1148.00" cy="280.00" r="27.00" fill="black"/><circle cx="1148.00" cy="280.00" r="23.00" fill="rgb(61,58,140)"/><line x1="1148.00" y1="280.00" x2="1148.00" y2="568.00" stroke="black" stroke-width="54" stroke-linecap="butt"/><line x1="1148.00" y1="280.00" x2="1148.00" y2="568.00" stroke="rgb(61,58,140)" stroke-width="46" stroke-linecap="butt"/></g><g mask="url(#f3_m_4_3_1_2)"><circle cx="1260.00" cy="280.00" r="27.00" fill="black"/><circle cx="1260.00" cy="280.00" r="23.00" fill="rgb(123,113,214)"/><line x1="1260.00" y1="280.00" x2="1260.00" y2="588.00" stroke="black" stroke-width="54" stroke-linecap="butt"/><line x1="1260.00" y1="280.00" x2="1260.00" y2="588.00" stroke="rgb(123,113,214)" stroke-width="46" stroke-linecap="butt"/></g><g mask="url(#f3_m_4_3_2_2)"><circle cx="1260.00" cy="280.00" r="27.00" fill="black"/><circle cx="1260.00" cy="280.00" r="23.00" fill="rgb(123,113,214)"/><line x1="1260.00" y1="280.00" x2="1260.00" y2="588.00" stroke="black" stroke-width="54" stroke-linecap="butt"/><line x1="1260.00" y1="280.00" x2="1260.00" y2="588.00" stroke="rgb(123,113,214)" stroke-width="46" stroke-linecap="butt"/></g><g><circle cx="1204.00" cy="196.00" r="27.00" fill="black"/><circle cx="1204.00" cy="196.00" r="23.00" fill="rgb(61,58,140)"/><line x1="1204.00" y1="196.00" x2="1105.51" y2="514.76" stroke="black" stroke-width="54" stroke-linecap="butt"/><line x1="1204.00" y1="196.00" x2="1105.51" y2="514.76" stroke="rgb(61,58,140)" stroke-width="46" stroke-linecap="butt"/></g><g><circle cx="1148.00" cy="568.00" r="27.00" fill="black"/><circle cx="1148.00" cy="568.00" r="23.00" fill="rgb(61,58,140)"/><line x1="1148.00" y1="568.00" x2="1256.52" y2="216.78" stroke="black" stroke-width="54" stroke-linecap="butt"/><line x1="1148.00" y1="568.00" x2="1256.52" y2="216.78" stroke="rgb(61,58,140)" stroke-width="46" stroke-linecap="butt"/></g><g><circle cx="1316.00" cy="216.00" r="27.00" fill="black"/><circle cx="1316.00" cy="216.00" r="23.00" fill="rgb(123,113,214)"/><line x1="1316.00" y1="216.00" x2="1207.48" y2="567.22" stroke="black" stroke-width="54" stroke-linecap="butt"/><line x1="1316.00" y1="216.00" x2="1207.48" y2="567.22" stroke="rgb(123,113,214)" stroke-width="46" stroke-linecap="butt"/></g><g><circle cx="1260.00" cy="588.00" r="27.00" fill="black"/><circle cx="1260.00" cy="588.00" r="23.00" fill="rgb(123,113,214)"/><line x1="1260.00" y1="588.00" x2="1358.49" y2="269.24" stroke="black" stroke-width="54" stroke-linecap="butt"/><line x1="1260.00" y1="588.00" x2="1358.49" y2="269.24" stroke="rgb(123,113,214)" stroke-width="46" stroke-linecap="butt"/></g><g><circle cx="1428.00" cy="364.00" r="27.00" fill="black"/><circle cx="1428.00" cy="364.00" r="23.00" fill="rgb(255,255,255)"/><line x1="1428.00" y1="364.00" x2="1109.27" y2="265.46" stroke="black" stroke-width="54" stroke-linecap="butt"/><line x1="1428.00" y1="364.00" x2="1109.27" y2="265.46" stroke="rgb(255,255,255)" stroke-width="46" stroke-linecap="butt"/></g><g><circle cx="1056.00" cy="308.00" r="27.00" fill="black"/><circle cx="1056.00" cy="308.00" r="23.00" fill="rgb(255,255,255)"/><line x1="1056.00" y1="308.00" x2="1407.17" y2="416.57" stroke="black" stroke-width="54" stroke-linecap="butt"/><line x1="1056.00" y1="308.00" x2="1407.17" y2="416.57" stroke="rgb(255,255,255)" stroke-width="46" stroke-linecap="butt"/></g><g><circle cx="1408.00" cy="476.00" r="27.00" fill="black"/><circle cx="1408.00" cy="476.00" r="23.00" fill="rgb(85,170,0)"/><line x1="1408.00" y1="476.00" x2="1056.83" y2="367.43" stroke="black" stroke-width="54" stroke-linecap="butt"/><line x1="1408.00" y1="476.00" x2="1056.83" y2="367.43" stroke="rgb(85,170,0)" stroke-width="46" stroke-linecap="butt"/></g><g><circle cx="1036.00" cy="420.00" r="27.00" fill="black"/><circle cx="1036.00" cy="420.00" r="23.00" fill="rgb(85,170,0)"/><line x1="1036.00" y1="420.00" x2="1354.73" y2="518.54" stroke="black" stroke-width="54" stroke-linecap="butt"/><line x1="1036.00" y1="420.00" x2="1354.73" y2="518.54" stroke="rgb(85,170,0)" stroke-width="46" stroke-linecap="butt"/></g><g mask="url(#f3_m_3_4_1_5)"><circle cx="1204.00" cy="196.00" r="27.00" fill="black"/><circle cx="1204.00" cy="196.00" r="23.00" fill="rgb(61,58,140)"/><line x1="1204.00" y1="196.00" x2="1105.51" y2="514.76" stroke="black" stroke-width="54" stroke-linecap="butt"/><line x1="1204.00" y1="196.00" x2="1105.51" y2="514.76" stroke="rgb(61,58,140)" stroke-width="46" stroke-linecap="butt"/></g><g mask="url(#f3_m_3_4_2_5)"><circle cx="1204.00" cy="196.00" r="27.00" fill="black"/><circle cx="1204.00" cy="196.00" r="23.00" fill="rgb(61,58,140)"/><line x1="1204.00" y1="196.00" x2="1105.51" y2="514.76" stroke="black" stroke-width="54" stroke-linecap="butt"/><line x1="1204.00" y1="196.00" x2="1105.51" y2="514.76" stroke="rgb(61,58,140)" stroke-width="46" stroke-linecap="butt"/></g><g mask="url(#f3_m_3_5_1_4)"><circle cx="1148.00" cy="568.00" r="27.00" fill="black"/><circle cx="1148.00" cy="568.00" r="23.00" fill="rgb(61,58,140)"/><line x1="1148.00" y1="568.00" x2="1256.52" y2="216.78" stroke="black" stroke-width="54" stroke-linecap="butt"/><line x1="1148.00" y1="568.00" x2="1256.52" y2="216.78" stroke="rgb(61,58,140)" stroke-width="46" stroke-linecap="butt"/></g><g mask="url(#f3_m_3_5_2_4)"><circle cx="1148.00" cy="568.00" r="27.00" fill="black"/><circle cx="1148.00" cy="568.00" r="23.00" fill="rgb(61,58,140)"/><line x1="1148.00" y1="568.00" x2="1256.52" y2="216.78" stroke="black" stroke-width="54" stroke-linecap="butt"/><line x1="1148.00" y1="568.00" x2="1256.52" y2="216.78" stroke="rgb(61,58,140)" stroke-width="46" stroke-linecap="butt"/></g><g mask="url(#f3_m_4_4_1_5)"><circle cx="1316.00" cy="216.00" r="27.00" fill="black"/><circle cx="1316.00" cy="216.00" r="23.00" fill="rgb(123,113,214)"/><line x1="1316.00" y1="216.00" x2="1207.48" y2="567.22" stroke="black" stroke-width="54" stroke-linecap="butt"/><line x1="1316.00" y1="216.00" x2="1207.48" y2="567.22" stroke="rgb(123,113,214)" stroke-width="46" stroke-linecap="butt"/></g><g mask="url(#f3_m_4_4_2_5)"><circle cx="1316.00" cy="216.00" r="27.00" fill="black"/><circle cx="1316.00" cy="216.00" r="23.00" fill="rgb(123,113,214)"/><line x1="1316.00" y1="216.00" x2="1207.48" y2="567.22" stroke="black" stroke-width="54" stroke-linecap="butt"/><line x1="1316.00" y1="216.00" x2="1207.48" y2="567.22" stroke="rgb(123,113,214)" stroke-width="46" stroke-linecap="butt"/></g><g mask="url(#f3_m_4_5_1_4)"><circle cx="1260.00" cy="588.00" r="27.00" fill="black"/><circle cx="1260.00" cy="588.00" r="23.00" fill="rgb(123,113,214)"/><line x1="1260.00" y1="588.00" x2="1358.49" y2="269.24" stroke="black" stroke-width="54" stroke-linecap="butt"/><line x1="1260.00" y1="588.00" x2="1358.49" y2="269.24" stroke="rgb(123,113,214)" stroke-width="46" stroke-linecap="butt"/></g><g mask="url(#f3_m_4_5_2_4)"><circle cx="1260.00" cy="588.00" r="27.00" fill="black"/><circle cx="1260.00" cy="588.00" r="23.00" fill="rgb(123,113,214)"/><line x1="1260.00" y1="588.00" x2="1358.49" y2="269.24" stroke="black" stroke-width="54" stroke-linecap="butt"/><line x1="1260.00" y1="588.00" x2="1358.49" y2="269.24" stroke="rgb(123,113,214)" stroke-width="46" stroke-linecap="butt"/></g><g><circle cx="1256.52" cy="216.78" r="27.00" fill="black"/><circle cx="1256.52" cy="216.78" r="23.00" fill="rgb(61,58,140)"/><line x1="1256.52" y1="216.78" x2="1089.37" y2="441.51" stroke="black" stroke-width="54" stroke-linecap="butt"/><line x1="1256.52" y1="216.78" x2="1089.37" y2="441.51" stroke="rgb(61,58,140)" stroke-width="46" stroke-linecap="butt"/></g><g><circle cx="1105.51" cy="514.76" r="27.00" fill="black"/><circle cx="1105.51" cy="514.76" r="23.00" fill="rgb(61,58,140)"/><line x1="1105.51" y1="514.76" x2="1301.78" y2="250.87" stroke="black" stroke-width="54" stroke-linecap="butt"/><line x1="1105.51" y1="514.76" x2="1301.78" y2="250.87" stroke="rgb(61,58,140)" stroke-width="46" stroke-linecap="butt"/></g><g><circle cx="1358.49" cy="269.24" r="27.00" fill="black"/><circle cx="1358.49" cy="269.24" r="23.00" fill="rgb(123,113,214)"/><line x1="1358.49" y1="269.24" x2="1162.22" y2="533.13" stroke="black" stroke-width="54" stroke-linecap="butt"/><line x1="1358.49" y1="269.24" x2="1162.22" y2="533.13" stroke="rgb(123,113,214)" stroke-width="46" stroke-linecap="butt"/></g><g><circle cx="1207.48" cy="567.22" r="27.00" fill="black"/><circle cx="1207.48" cy="567.22" r="23.00" fill="rgb(123,113,214)"/><line x1="1207.48" y1="567.22" x2="1374.63" y2="342.49" stroke="black" stroke-width="54" stroke-linecap="butt"/><line x1="1207.48" y1="567.22" x2="1374.63" y2="342.49" stroke="rgb(123,113,214)" stroke-width="46" stroke-linecap="butt"/></g><g><circle cx="1407.17" cy="416.57" r="27.00" fill="black"/><circle cx="1407.17" cy="416.57" r="23.00" fill="rgb(255,255,255)"/><line x1="1407.17" y1="416.57" x2="1182.46" y2="249.33" stroke="black" stroke-width="54" stroke-linecap="butt"/><line x1="1407.17" y1="416.57" x2="1182.46" y2="249.33" stroke="rgb(255,255,255)" stroke-width="46" stroke-linecap="butt"/></g><g><circle cx="1109.27" cy="265.46" r="27.00" fill="black"/><circle cx="1109.27" cy="265.46" r="23.00" fill="rgb(255,255,255)"/><line x1="1109.27" y1="265.46" x2="1373.10" y2="461.83" stroke="black" stroke-width="54" stroke-linecap="butt"/><line x1="1109.27" y1="265.46" x2="1373.10" y2="461.83" stroke="rgb(255,255,255)" stroke-width="46" stroke-linecap="butt"/></g><g><circle cx="1354.73" cy="518.54" r="27.00" fill="black"/><circle cx="1354.73" cy="518.54" r="23.00" fill="rgb(85,170,0)"/><line x1="1354.73" y1="518.54" x2="1090.90" y2="322.17" stroke="black" stroke-width="54" stroke-linecap="butt"/><line x1="1354.73" y1="518.54" x2="1090.90" y2="322.17" stroke="rgb(85,170,0)" stroke-width="46" stroke-linecap="butt"/></g><g><circle cx="1056.83" cy="367.43" r="27.00" fill="black"/><circle cx="1056.83" cy="367.43" r="23.00" fill="rgb(85,170,0)"/><line x1="1056.83" y1="367.43" x2="1281.54" y2="534.67" stroke="black" stroke-width="54" stroke-linecap="butt"/><line x1="1056.83" y1="367.43" x2="1281.54" y2="534.67" stroke="rgb(85,170,0)" stroke-width="46" stroke-linecap="butt"/></g><g mask="url(#f3_m_3_7_1_6)"><circle cx="1256.52" cy="216.78" r="27.00" fill="black"/><circle cx="1256.52" cy="216.78" r="23.00" fill="rgb(61,58,140)"/><line x1="1256.52" y1="216.78" x2="1089.37" y2="441.51" stroke="black" stroke-width="54" stroke-linecap="butt"/><line x1="1256.52" y1="216.78" x2="1089.37" y2="441.51" stroke="rgb(61,58,140)" stroke-width="46" stroke-linecap="butt"/></g><g mask="url(#f3_m_3_7_2_6)"><circle cx="1256.52" cy="216.78" r="27.00" fill="black"/><circle cx="1256.52" cy="216.78" r="23.00" fill="rgb(61,58,140)"/><line x1="1256.52" y1="216.78" x2="1089.37" y2="441.51" stroke="black" stroke-width="54" stroke-linecap="butt"/><line x1="1256.52" y1="216.78" x2="1089.37" y2="441.51" stroke="rgb(61,58,140)" stroke-width="46" stroke-linecap="butt"/></g><g mask="url(#f3_m_3_6_1_7)"><circle cx="1105.51" cy="514.76" r="27.00" fill="black"/><circle cx="1105.51" cy="514.76" r="23.00" fill="rgb(61,58,140)"/><line x1="1105.51" y1="514.76" x2="1301.78" y2="250.87" stroke="black" stroke-width="54" stroke-linecap="butt"/><line x1="1105.51" y1="514.76" x2="1301.78" y2="250.87" stroke="rgb(61,58,140)" stroke-width="46" stroke-linecap="butt"/></g><g mask="url(#f3_m_3_6_2_7)"><circle cx="1105.51" cy="514.76" r="27.00" fill="black"/><circle cx="1105.51" cy="514.76" r="23.00" fill="rgb(61,58,140)"/><line x1="1105.51" y1="514.76" x2="1301.78" y2="250.87" stroke="black" stroke-width="54" stroke-linecap="butt"/><line x1="1105.51" y1="514.76" x2="1301.78" y2="250.87" stroke="rgb(61,58,140)" stroke-width="46" stroke-linecap="butt"/></g><g mask="url(#f3_m_4_7_1_6)"><circle cx="1358.49" cy="269.24" r="27.00" fill="black"/><circle cx="1358.49" cy="269.24" r="23.00" fill="rgb(123,113,214)"/><line x1="1358.49" y1="269.24" x2="1162.22" y2="533.13" stroke="black" stroke-width="54" stroke-linecap="butt"/><line x1="1358.49" y1="269.24" x2="1162.22" y2="533.13" stroke="rgb(123,113,214)" stroke-width="46" stroke-linecap="butt"/></g><g mask="url(#f3_m_4_7_2_6)"><circle cx="1358.49" cy="269.24" r="27.00" fill="black"/><circle cx="1358.49" cy="269.24" r="23.00" fill="rgb(123,113,214)"/><line x1="1358.49" y1="269.24" x2="1162.22" y2="533.13" stroke="black" stroke-width="54" stroke-linecap="butt"/><line x1="1358.49" y1="269.24" x2="1162.22" y2="533.13" stroke="rgb(123,113,214)" stroke-width="46" stroke-linecap="butt"/></g><g mask="url(#f3_m_4_6_1_7)"><circle cx="1207.48" cy="567.22" r="27.00" fill="black"/><circle cx="1207.48" cy="567.22" r="23.00" fill="rgb(123,113,214)"/><line x1="1207.48" y1="567.22" x2="1374.63" y2="342.49" stroke="black" stroke-width="54" stroke-linecap="butt"/><line x1="1207.48" y1="567.22" x2="1374.63" y2="342.49" stroke="rgb(123,113,214)" stroke-width="46" stroke-linecap="butt"/></g><g mask="url(#f3_m_4_6_2_7)"><circle cx="1207.48" cy="567.22" r="27.00" fill="black"/><circle cx="1207.48" cy="567.22" r="23.00" fill="rgb(123,113,214)"/><line x1="1207.48" y1="567.22" x2="1374.63" y2="342.49" stroke="black" stroke-width="54" stroke-linecap="butt"/><line x1="1207.48" y1="567.22" x2="1374.63" y2="342.49" stroke="rgb(123,113,214)" stroke-width="46" stroke-linecap="butt"/></g><g><circle cx="1182.46" cy="249.33" r="27.00" fill="black"/><circle cx="1182.46" cy="249.33" r="23.00" fill="rgb(255,255,255)"/><line x1="1182.46" y1="249.33" x2="1093.65" y2="568.91" stroke="black" stroke-width="54" stroke-linecap="butt"/><line x1="1182.46" y1="249.33" x2="1093.65" y2="568.91" stroke="rgb(255,255,255)" stroke-width="46" stroke-linecap="butt"/></g><g><circle cx="1162.22" cy="533.13" r="27.00" fill="black"/><circle cx="1162.22" cy="533.13" r="23.00" fill="rgb(123,113,214)"/><line x1="1162.22" y1="533.13" x2="1265.54" y2="161.32" stroke="black" stroke-width="54" stroke-linecap="butt"/><line x1="1162.22" y1="533.13" x2="1265.54" y2="161.32" stroke="rgb(123,113,214)" stroke-width="46" stroke-linecap="butt"/></g><g><circle cx="1301.78" cy="250.87" r="27.00" fill="black"/><circle cx="1301.78" cy="250.87" r="23.00" fill="rgb(61,58,140)"/><line x1="1301.78" y1="250.87" x2="1198.46" y2="622.68" stroke="black" stroke-width="54" stroke-linecap="butt"/><line x1="1301.78" y1="250.87" x2="1198.46" y2="622.68" stroke="rgb(61,58,140)" stroke-width="46" stroke-linecap="butt"/></g><g><circle cx="1281.54" cy="534.67" r="27.00" fill="black"/><circle cx="1281.54" cy="534.67" r="23.00" fill="rgb(85,170,0)"/><line x1="1281.54" y1="534.67" x2="1370.35" y2="215.09" stroke="black" stroke-width="54" stroke-linecap="butt"/><line x1="1281.54" y1="534.67" x2="1370.35" y2="215.09" stroke="rgb(85,170,0)" stroke-width="46" stroke-linecap="butt"/></g><g><circle cx="1374.63" cy="342.49" r="27.00" fill="black"/><circle cx="1374.63" cy="342.49" r="23.00" fill="rgb(123,113,214)"/><line x1="1374.63" y1="342.49" x2="1055.14" y2="253.53" stroke="black" stroke-width="54" stroke-linecap="butt"/><line x1="1374.63" y1="342.49" x2="1055.14" y2="253.53" stroke="rgb(123,113,214)" stroke-width="46" stroke-linecap="butt"/></g><g><circle cx="1090.90" cy="322.17" r="27.00" fill="black"/><circle cx="1090.90" cy="322.17" r="23.00" fill="rgb(85,170,0)"/><line x1="1090.90" y1="322.17" x2="1462.61" y2="425.68" stroke="black" stroke-width="54" stroke-linecap="butt"/><line x1="1090.90" y1="322.17" x2="1462.61" y2="425.68" stroke="rgb(85,170,0)" stroke-width="46" stroke-linecap="butt"/></g><g><circle cx="1373.10" cy="461.83" r="27.00" fill="black"/><circle cx="1373.10" cy="461.83" r="23.00" fill="rgb(255,255,255)"/><line x1="1373.10" y1="461.83" x2="1001.39" y2="358.32" stroke="black" stroke-width="54" stroke-linecap="butt"/><line x1="1373.10" y1="461.83" x2="1001.39" y2="358.32" stroke="rgb(255,255,255)" stroke-width="46" stroke-linecap="butt"/></g><g><circle cx="1089.37" cy="441.51" r="27.00" fill="black"/><circle cx="1089.37" cy="441.51" r="23.00" fill="rgb(61,58,140)"/><line x1="1089.37" y1="441.51" x2="1408.86" y2="530.47" stroke="black" stroke-width="54" stroke-linecap="butt"/><line x1="1089.37" y1="441.51" x2="1408.86" y2="530.47" stroke="rgb(61,58,140)" stroke-width="46" stroke-linecap="butt"/></g><g mask="url(#f3_m_1_8_4_8)"><circle cx="1182.46" cy="249.33" r="27.00" fill="black"/><circle cx="1182.46" cy="249.33" r="23.00" fill="rgb(255,255,255)"/><line x1="1182.46" y1="249.33" x2="1093.65" y2="568.91" stroke="black" stroke-width="54" stroke-linecap="butt"/><line x1="1182.46" y1="249.33" x2="1093.65" y2="568.91" stroke="rgb(255,255,255)" stroke-width="46" stroke-linecap="butt"/></g><g mask="url(#f3_m_1_8_1_9)"><circle cx="1182.46" cy="249.33" r="27.00" fill="black"/><circle cx="1182.46" cy="249.33" r="23.00" fill="rgb(255,255,255)"/><line x1="1182.46" y1="249.33" x2="1093.65" y2="568.91" stroke="black" stroke-width="54" stroke-linecap="butt"/><line x1="1182.46" y1="249.33" x2="1093.65" y2="568.91" stroke="rgb(255,255,255)" stroke-width="46" stroke-linecap="butt"/></g><g mask="url(#f3_m_4_9_2_8)"><circle cx="1162.22" cy="533.13" r="27.00" fill="black"/><circle cx="1162.22" cy="533.13" r="23.00" fill="rgb(123,113,214)"/><line x1="1162.22" y1="533.13" x2="1265.54" y2="161.32" stroke="black" stroke-width="54" stroke-linecap="butt"/><line x1="1162.22" y1="533.13" x2="1265.54" y2="161.32" stroke="rgb(123,113,214)" stroke-width="46" stroke-linecap="butt"/></g><g mask="url(#f3_m_4_9_3_9)"><circle cx="1162.22" cy="533.13" r="27.00" fill="black"/><circle cx="1162.22" cy="533.13" r="23.00" fill="rgb(123,113,214)"/><line x1="1162.22" y1="533.13" x2="1265.54" y2="161.32" stroke="black" stroke-width="54" stroke-linecap="butt"/><line x1="1162.22" y1="533.13" x2="1265.54" y2="161.32" stroke="rgb(123,113,214)" stroke-width="46" stroke-linecap="butt"/></g><g mask="url(#f3_m_3_8_4_8)"><circle cx="1301.78" cy="250.87" r="27.00" fill="black"/><circle cx="1301.78" cy="250.87" r="23.00" fill="rgb(61,58,140)"/><line x1="1301.78" y1="250.87" x2="1198.46" y2="622.68" stroke="black" stroke-width="54" stroke-linecap="butt"/><line x1="1301.78" y1="250.87" x2="1198.46" y2="622.68" stroke="rgb(61,58,140)" stroke-width="46" stroke-linecap="butt"/></g><g mask="url(#f3_m_3_8_1_9)"><circle cx="1301.78" cy="250.87" r="27.00" fill="black"/><circle cx="1301.78" cy="250.87" r="23.00" fill="rgb(61,58,140)"/><line x1="1301.78" y1="250.87" x2="1198.46" y2="622.68" stroke="black" stroke-width="54" stroke-linecap="butt"/><line x1="1301.78" y1="250.87" x2="1198.46" y2="622.68" stroke="rgb(61,58,140)" stroke-width="46" stroke-linecap="butt"/></g><g mask="url(#f3_m_2_9_2_8)"><circle cx="1281.54" cy="534.67" r="27.00" fill="black"/><circle cx="1281.54" cy="534.67" r="23.00" fill="rgb(85,170,0)"/><line x1="1281.54" y1="534.67" x2="1370.35" y2="215.09" stroke="black" stroke-width="54" stroke-linecap="butt"/><line x1="1281.54" y1="534.67" x2="1370.35" y2="215.09" stroke="rgb(85,170,0)" stroke-width="46" stroke-linecap="butt"/></g><g mask="url(#f3_m_2_9_3_9)"><circle cx="1281.54" cy="534.67" r="27.00" fill="black"/><circle cx="1281.54" cy="534.67" r="23.00" fill="rgb(85,170,0)"/><line x1="1281.54" y1="534.67" x2="1370.35" y2="215.09" stroke="black" stroke-width="54" stroke-linecap="butt"/><line x1="1281.54" y1="534.67" x2="1370.35" y2="215.09" stroke="rgb(85,170,0)" stroke-width="46" stroke-linecap="butt"/></g><text x="1086.8" y="593.7" font-family="ui-monospace,monospace" font-size="18.4" font-weight="700" text-anchor="middle" dominant-baseline="central" fill="#111" stroke="#fff" stroke-width="5.2" paint-order="stroke">1_8</text><text x="1272.4" y="136.5" font-family="ui-monospace,monospace" font-size="18.4" font-weight="700" text-anchor="middle" dominant-baseline="central" fill="#111" stroke="#fff" stroke-width="5.2" paint-order="stroke">4_9</text><text x="1191.6" y="647.5" font-family="ui-monospace,monospace" font-size="18.4" font-weight="700" text-anchor="middle" dominant-baseline="central" fill="#111" stroke="#fff" stroke-width="5.2" paint-order="stroke">3_8</text><text x="1377.2" y="190.3" font-family="ui-monospace,monospace" font-size="18.4" font-weight="700" text-anchor="middle" dominant-baseline="central" fill="#111" stroke="#fff" stroke-width="5.2" paint-order="stroke">2_9</text><text x="1030.3" y="246.6" font-family="ui-monospace,monospace" font-size="18.4" font-weight="700" text-anchor="middle" dominant-baseline="central" fill="#111" stroke="#fff" stroke-width="5.2" paint-order="stroke">4_8</text><text x="1487.4" y="432.6" font-family="ui-monospace,monospace" font-size="18.4" font-weight="700" text-anchor="middle" dominant-baseline="central" fill="#111" stroke="#fff" stroke-width="5.2" paint-order="stroke">2_8</text><text x="976.6" y="351.4" font-family="ui-monospace,monospace" font-size="18.4" font-weight="700" text-anchor="middle" dominant-baseline="central" fill="#111" stroke="#fff" stroke-width="5.2" paint-order="stroke">1_9</text><text x="1433.7" y="537.4" font-family="ui-monospace,monospace" font-size="18.4" font-weight="700" text-anchor="middle" dominant-baseline="central" fill="#111" stroke="#fff" stroke-width="5.2" paint-order="stroke">3_9</text></svg>