<svg xmlns="http://www.w3.org/2000/svg" viewBox="909.7 69.7 644.5 644.6" width="100%" style="height:auto;display:block"><defs><mask id="f2_m_3_2_1_3" maskUnits="userSpaceOnUse" x="909.7" y="69.7" width="644.5" height="644.6"><rect x="909.7" y="69.7" width="644.5" height="644.6" fill="black"/><line x1="1120.00" y1="364.00" x2="1356.00" y2="364.00" stroke="white" stroke-width="54" stroke-linecap="butt"/></mask><mask id="f2_m_3_2_2_3" maskUnits="userSpaceOnUse" x="909.7" y="69.7" width="644.5" height="644.6"><rect x="909.7" y="69.7" width="644.5" height="644.6" fill="black"/><line x1="1120.00" y1="476.00" x2="1326.00" y2="476.00" stroke="white" stroke-width="54" stroke-linecap="butt"/></mask><mask id="f2_m_4_2_1_3" maskUnits="userSpaceOnUse" x="909.7" y="69.7" width="644.5" height="644.6"><rect x="909.7" y="69.7" width="644.5" height="644.6" fill="black"/><line x1="1120.00" y1="364.00" x2="1356.00" y2="364.00" stroke="white" stroke-width="54" stroke-linecap="butt"/></mask><mask id="f2_m_4_2_2_3" maskUnits="userSpaceOnUse" x="909.7" y="69.7" width="644.5" height="644.6"><rect x="909.7" y="69.7" width="644.5" height="644.6" fill="black"/><line x1="1120.00" y1="476.00" x2="1326.00" y2="476.00" stroke="white" stroke-width="54" stroke-linecap="butt"/></mask><mask id="f2_m_3_3_1_2" maskUnits="userSpaceOnUse" x="909.7" y="69.7" width="644.5" height="644.6"><rect x="909.7" y="69.7" width="644.5" height="644.6" fill="black"/><line x1="1344.00" y1="308.00" x2="1138.00" y2="308.00" stroke="white" stroke-width="54" stroke-linecap="butt"/></mask><mask id="f2_m_3_3_2_2" maskUnits="userSpaceOnUse" x="909.7" y="69.7" width="644.5" height="644.6"><rect x="909.7" y="69.7" width="644.5" height="644.6" fill="black"/><line x1="1344.00" y1="420.00" x2="1108.00" y2="420.00" stroke="white" stroke-width="54" stroke-linecap="butt"/></mask><mask id="f2_m_4_3_1_2" maskUnits="userSpaceOnUse" x="909.7" y="69.7" width="644.5" height="644.6"><rect x="909.7" y="69.7" width="644.5" height="644.6" fill="black"/><line x1="1344.00" y1="308.00" x2="1138.00" y2="308.00" stroke="white" stroke-width="54" stroke-linecap="butt"/></mask><mask id="f2_m_4_3_2_2" maskUnits="userSpaceOnUse" x="909.7" y="69.7" width="644.5" height="644.6"><rect x="909.7" y="69.7" width="644.5" height="644.6" fill="black"/><line x1="1344.00" y1="420.00" x2="1108.00" y2="420.00" stroke="white" stroke-width="54" stroke-linecap="butt"/></mask><mask id="f2_m_3_4_1_5" maskUnits="userSpaceOnUse" x="909.7" y="69.7" width="644.5" height="644.6"><rect x="909.7" y="69.7" width="644.5" height="644.6" fill="black"/><line x1="1356.00" y1="364.00" x2="1172.64" y2="262.74" stroke="white" stroke-width="54" stroke-linecap="butt"/></mask><mask id="f2_m_3_4_2_5" maskUnits="userSpaceOnUse" x="909.7" y="69.7" width="644.5" height="644.6"><rect x="909.7" y="69.7" width="644.5" height="644.6" fill="black"/><line x1="1326.00" y1="476.00" x2="1091.99" y2="346.76" stroke="white" stroke-width="54" stroke-linecap="butt"/></mask><mask id="f2_m_3_5_1_4" maskUnits="userSpaceOnUse" x="909.7" y="69.7" width="644.5" height="644.6"><rect x="909.7" y="69.7" width="644.5" height="644.6" fill="black"/><line x1="1138.00" y1="308.00" x2="1372.01" y2="437.24" stroke="white" stroke-width="54" stroke-linecap="butt"/></mask><mask id="f2_m_3_5_2_4" maskUnits="userSpaceOnUse" x="909.7" y="69.7" width="644.5" height="644.6"><rect x="909.7" y="69.7" width="644.5" height="644.6" fill="black"/><line x1="1108.00" y1="420.00" x2="1291.36" y2="521.26" stroke="white" stroke-width="54" stroke-linecap="butt"/></mask><mask id="f2_m_4_4_1_5" maskUnits="userSpaceOnUse" x="909.7" y="69.7" width="644.5" height="644.6"><rect x="909.7" y="69.7" width="644.5" height="644.6" fill="black"/><line x1="1356.00" y1="364.00" x2="1172.64" y2="262.74" stroke="white" stroke-width="54" stroke-linecap="butt"/></mask><mask id="f2_m_4_4_2_5" maskUnits="userSpaceOnUse" x="909.7" y="69.7" width="644.5" height="644.6"><rect x="909.7" y="69.7" width="644.5" height="644.6" fill="black"/><line x1="1326.00" y1="476.00" x2="1091.99" y2="346.76" stroke="white" stroke-width="54" stroke-linecap="butt"/></mask><mask id="f2_m_4_5_1_4" maskUnits="userSpaceOnUse" x="909.7" y="69.7" width="644.5" height="644.6"><rect x="909.7" y="69.7" width="644.5" height="644.6" fill="black"/><line x1="1138.00" y1="308.00" x2="1372.01" y2="437.24" stroke="white" stroke-width="54" stroke-linecap="butt"/></mask><mask id="f2_m_4_5_2_4" maskUnits="userSpaceOnUse" x="909.7" y="69.7" width="644.5" height="644.6"><rect x="909.7" y="69.7" width="644.5" height="644.6" fill="black"/><line x1="1108.00" y1="420.00" x2="1291.36" y2="521.26" stroke="white" stroke-width="54" stroke-linecap="butt"/></mask><mask id="f2_m_3_7_1_6" maskUnits="userSpaceOnUse" x="909.7" y="69.7" width="644.5" height="644.6"><rect x="909.7" y="69.7" width="644.5" height="644.6" fill="black"/><line x1="1372.01" y1="437.24" x2="1199.37" y2="202.04" stroke="white" stroke-width="54" stroke-linecap="butt"/></mask><mask id="f2_m_3_7_2_6" maskUnits="userSpaceOnUse" x="909.7" y="69.7" width="644.5" height="644.6"><rect x="909.7" y="69.7" width="644.5" height="644.6" fill="black"/><line x1="1291.36" y1="521.26" x2="1102.86" y2="264.47" stroke="white" stroke-width="54" stroke-linecap="butt"/></mask><mask id="f2_m_3_6_1_7" maskUnits="userSpaceOnUse" x="909.7" y="69.7" width="644.5" height="644.6"><rect x="909.7" y="69.7" width="644.5" height="644.6" fill="black"/><line x1="1172.64" y1="262.74" x2="1361.14" y2="519.53" stroke="white" stroke-width="54" stroke-linecap="butt"/></mask><mask id="f2_m_3_6_2_7" maskUnits="userSpaceOnUse" x="909.7" y="69.7" width="644.5" height="644.6"><rect x="909.7" y="69.7" width="644.5" height="644.6" fill="black"/><line x1="1091.99" y1="346.76" x2="1264.63" y2="581.96" stroke="white" stroke-width="54" stroke-linecap="butt"/></mask><mask id="f2_m_4_7_1_6" maskUnits="userSpaceOnUse" x="909.7" y="69.7" width="644.5" height="644.6"><rect x="909.7" y="69.7" width="644.5" height="644.6" fill="black"/><line x1="1372.01" y1="437.24" x2="1199.37" y2="202.04" stroke="white" stroke-width="54" stroke-linecap="butt"/></mask><mask id="f2_m_4_7_2_6" maskUnits="userSpaceOnUse" x="909.7" y="69.7" width="644.5" height="644.6"><rect x="909.7" y="69.7" width="644.5" height="644.6" fill="black"/><line x1="1291.36" y1="521.26" x2="1102.86" y2="264.47" stroke="white" stroke-width="54" stroke-linecap="butt"/></mask><mask id="f2_m_4_6_1_7" maskUnits="userSpaceOnUse" x="909.7" y="69.7" width="644.5" height="644.6"><rect x="909.7" y="69.7" width="644.5" height="644.6" fill="black"/><line x1="1172.64" y1="262.74" x2="1361.14" y2="519.53" stroke="white" stroke-width="54" stroke-linecap="butt"/></mask><mask id="f2_m_4_6_2_7" maskUnits="userSpaceOnUse" x="909.7" y="69.7" width="644.5" height="644.6"><rect x="909.7" y="69.7" width="644.5" height="644.6" fill="black"/><line x1="1091.99" y1="346.76" x2="1264.63" y2="581.96" stroke="white" stroke-width="54" stroke-linecap="butt"/></mask></defs><g><circle cx="1204.00" cy="504.00" r="27.00" fill="black"/><circle cx="1204.00" cy="504.00" r="23.00" fill="rgb(61,58,140)"/><circle cx="1148.00" cy="280.00" r="27.00" fill="black"/><circle cx="1148.00" cy="280.00" r="23.00" fill="rgb(61,58,140)"/><line x1="1204.00" y1="504.00" x2="1148.00" y2="280.00" stroke="black" stroke-width="54" stroke-linecap="butt"/><line x1="1204.00" y1="504.00" x2="1148.00" y2="280.00" stroke="rgb(61,58,140)" stroke-width="46" stroke-linecap="butt"/></g><g><circle cx="1316.00" cy="504.00" r="27.00" fill="black"/><circle cx="1316.00" cy="504.00" r="23.00" fill="rgb(123,113,214)"/><circle cx="1260.00" cy="280.00" r="27.00" fill="black"/><circle cx="1260.00" cy="280.00" r="23.00" fill="rgb(123,113,214)"/><line x1="1316.00" y1="504.00" x2="1260.00" y2="280.00" stroke="black" stroke-width="54" stroke-linecap="butt"/><line x1="1316.00" y1="504.00" x2="1260.00" y2="280.00" stroke="rgb(123,113,214)" stroke-width="46" stroke-linecap="butt"/></g><g><circle cx="1120.00" cy="364.00" r="27.00" fill="black"/><circle cx="1120.00" cy="364.00" r="23.00" fill="rgb(255,255,255)"/><circle cx="1344.00" cy="308.00" r="27.00" fill="black"/><circle cx="1344.00" cy="308.00" r="23.00" fill="rgb(255,255,255)"/><line x1="1120.00" y1="364.00" x2="1344.00" y2="308.00" stroke="black" stroke-width="54" stroke-linecap="butt"/><line x1="1120.00" y1="364.00" x2="1344.00" y2="308.00" stroke="rgb(255,255,255)" stroke-width="46" stroke-linecap="butt"/></g><g><circle cx="1120.00" cy="476.00" r="27.00" fill="black"/><circle cx="1120.00" cy="476.00" r="23.00" fill="rgb(85,170,0)"/><circle cx="1344.00" cy="420.00" r="27.00" fill="black"/><circle cx="1344.00" cy="420.00" r="23.00" fill="rgb(85,170,0)"/><line x1="1120.00" y1="476.00" x2="1344.00" y2="420.00" stroke="black" stroke-width="54" stroke-linecap="butt"/><line x1="1120.00" y1="476.00" x2="1344.00" y2="420.00" stroke="rgb(85,170,0)" stroke-width="46" stroke-linecap="butt"/></g><g><circle cx="1204.00" cy="504.00" r="27.00" fill="black"/><circle cx="1204.00" cy="504.00" r="23.00" fill="rgb(61,58,140)"/><line x1="1204.00" y1="504.00" x2="1204.00" y2="268.00" stroke="black" stroke-width="54" stroke-linecap="butt"/><line x1="1204.00" y1="504.00" x2="1204.00" y2="268.00" stroke="rgb(61,58,140)" stroke-width="46" stroke-linecap="butt"/></g><g><circle cx="1316.00" cy="504.00" r="27.00" fill="black"/><circle cx="1316.00" cy="504.00" r="23.00" fill="rgb(123,113,214)"/><line x1="1316.00" y1="504.00" x2="1316.00" y2="298.00" stroke="black" stroke-width="54" stroke-linecap="butt"/><line x1="1316.00" y1="504.00" x2="1316.00" y2="298.00" stroke="rgb(123,113,214)" stroke-width="46" stroke-linecap="butt"/></g><g><circle cx="1344.00" cy="308.00" r="27.00" fill="black"/><circle cx="1344.00" cy="308.00" r="23.00" fill="rgb(255,255,255)"/><line x1="1344.00" y1="308.00" x2="1138.00" y2="308.00" stroke="black" stroke-width="54" stroke-linecap="butt"/><line x1="1344.00" y1="308.00" x2="1138.00" y2="308.00" stroke="rgb(255,255,255)" stroke-width="46" stroke-linecap="butt"/></g><g><circle cx="1344.00" cy="420.00" r="27.00" fill="black"/><circle cx="1344.00" cy="420.00" r="23.00" fill="rgb(85,170,0)"/><line x1="1344.00" y1="420.00" x2="1108.00" y2="420.00" stroke="black" stroke-width="54" stroke-linecap="butt"/><line x1="1344.00" y1="420.00" x2="1108.00" y2="420.00" stroke="rgb(85,170,0)" stroke-width="46" stroke-linecap="butt"/></g><g><circle cx="1148.00" cy="280.00" r="27.00" fill="black"/><circle cx="1148.00" cy="280.00" r="23.00" fill="rgb(61,58,140)"/><line x1="1148.00" y1="280.00" x2="1148.00" y2="486.00" stroke="black" stroke-width="54" stroke-linecap="butt"/><line x1="1148.00" y1="280.00" x2="1148.00" y2="486.00" stroke="rgb(61,58,140)" stroke-width="46" stroke-linecap="butt"/></g><g><circle cx="1260.00" cy="280.00" r="27.00" fill="black"/><circle cx="1260.00" cy="280.00" r="23.00" fill="rgb(123,113,214)"/><line x1="1260.00" y1="280.00" x2="1260.00" y2="516.00" stroke="black" stroke-width="54" stroke-linecap="butt"/><line x1="1260.00" y1="280.00" x2="1260.00" y2="516.00" stroke="rgb(123,113,214)" stroke-width="46" stroke-linecap="butt"/></g><g><circle cx="1120.00" cy="364.00" r="27.00" fill="black"/><circle cx="1120.00" cy="364.00" r="23.00" fill="rgb(255,255,255)"/><line x1="1120.00" y1="364.00" x2="1356.00" y2="364.00" stroke="black" stroke-width="54" stroke-linecap="butt"/><line x1="1120.00" y1="364.00" x2="1356.00" y2="364.00" stroke="rgb(255,255,255)" stroke-width="46" stroke-linecap="butt"/></g><g><circle cx="1120.00" cy="476.00" r="27.00" fill="black"/><circle cx="1120.00" cy="476.00" r="23.00" fill="rgb(85,170,0)"/><line x1="1120.00" y1="476.00" x2="1326.00" y2="476.00" stroke="black" stroke-width="54" stroke-linecap="butt"/><line x1="1120.00" y1="476.00" x2="1326.00" y2="476.00" stroke="rgb(85,170,0)" stroke-width="46" stroke-linecap="butt"/></g><g mask="url(#f2_m_3_2_1_3)"><circle cx="1204.00" cy="504.00" r="27.00" fill="black"/><circle cx="1204.00" cy="504.00" r="23.00" fill="rgb(61,58,140)"/><line x1="1204.00" y1="504.00" x2="1204.00" y2="268.00" stroke="black" stroke-width="54" stroke-linecap="butt"/><line x1="1204.00" y1="504.00" x2="1204.00" y2="268.00" stroke="rgb(61,58,140)" stroke-width="46" stroke-linecap="butt"/></g><g mask="url(#f2_m_3_2_2_3)"><circle cx="1204.00" cy="504.00" r="27.00" fill="black"/><circle cx="1204.00" cy="504.00" r="23.00" fill="rgb(61,58,140)"/><line x1="1204.00" y1="504.00" x2="1204.00" y2="268.00" stroke="black" stroke-width="54" stroke-linecap="butt"/><line x1="1204.00" y1="504.00" x2="1204.00" y2="268.00" stroke="rgb(61,58,140)" stroke-width="46" stroke-linecap="butt"/></g><g mask="url(#f2_m_4_2_1_3)"><circle cx="1316.00" cy="504.00" r="27.00" fill="black"/><circle cx="1316.00" cy="504.00" r="23.00" fill="rgb(123,113,214)"/><line x1="1316.00" y1="504.00" x2="1316.00" y2="298.00" stroke="black" stroke-width="54" stroke-linecap="butt"/><line x1="1316.00" y1="504.00" x2="1316.00" y2="298.00" stroke="rgb(123,113,214)" stroke-width="46" stroke-linecap="butt"/></g><g mask="url(#f2_m_4_2_2_3)"><circle cx="1316.00" cy="504.00" r="27.00" fill="black"/><circle cx="1316.00" cy="504.00" r="23.00" fill="rgb(123,113,214)"/><line x1="1316.00" y1="504.00" x2="1316.00" y2="298.00" stroke="black" stroke-width="54" stroke-linecap="butt"/><line x1="1316.00" y1="504.00" x2="1316.00" y2="298.00" stroke="rgb(123,113,214)" stroke-width="46" stroke-linecap="butt"/></g><g mask="url(#f2_m_3_3_1_2)"><circle cx="1148.00" cy="280.00" r="27.00" fill="black"/><circle cx="1148.00" cy="280.00" r="23.00" fill="rgb(61,58,140)"/><line x1="1148.00" y1="280.00" x2="1148.00" y2="486.00" stroke="black" stroke-width="54" stroke-linecap="butt"/><line x1="1148.00" y1="280.00" x2="1148.00" y2="486.00" stroke="rgb(61,58,140)" stroke-width="46" stroke-linecap="butt"/></g><g mask="url(#f2_m_3_3_2_2)"><circle cx="1148.00" cy="280.00" r="27.00" fill="black"/><circle cx="1148.00" cy="280.00" r="23.00" fill="rgb(61,58,140)"/><line x1="1148.00" y1="280.00" x2="1148.00" y2="486.00" stroke="black" stroke-width="54" stroke-linecap="butt"/><line x1="1148.00" y1="280.00" x2="1148.00" y2="486.00" stroke="rgb(61,58,140)" stroke-width="46" stroke-linecap="butt"/></g><g mask="url(#f2_m_4_3_1_2)"><circle cx="1260.00" cy="280.00" r="27.00" fill="black"/><circle cx="1260.00" cy="280.00" r="23.00" fill="rgb(123,113,214)"/><line x1="1260.00" y1="280.00" x2="1260.00" y2="516.00" stroke="black" stroke-width="54" stroke-linecap="butt"/><line x1="1260.00" y1="280.00" x2="1260.00" y2="516.00" stroke="rgb(123,113,214)" stroke-width="46" stroke-linecap="butt"/></g><g mask="url(#f2_m_4_3_2_2)"><circle cx="1260.00" cy="280.00" r="27.00" fill="black"/><circle cx="1260.00" cy="280.00" r="23.00" fill="rgb(123,113,214)"/><line x1="1260.00" y1="280.00" x2="1260.00" y2="516.00" stroke="black" stroke-width="54" stroke-linecap="butt"/><line x1="1260.00" y1="280.00" x2="1260.00" y2="516.00" stroke="rgb(123,113,214)" stroke-width="46" stroke-linecap="butt"/></g><g><circle cx="1204.00" cy="268.00" r="27.00" fill="black"/><circle cx="1204.00" cy="268.00" r="23.00" fill="rgb(61,58,140)"/><line x1="1204.00" y1="268.00" x2="1102.77" y2="451.38" stroke="black" stroke-width="54" stroke-linecap="butt"/><line x1="1204.00" y1="268.00" x2="1102.77" y2="451.38" stroke="rgb(61,58,140)" stroke-width="46" stroke-linecap="butt"/></g><g><circle cx="1148.00" cy="486.00" r="27.00" fill="black"/><circle cx="1148.00" cy="486.00" r="23.00" fill="rgb(61,58,140)"/><line x1="1148.00" y1="486.00" x2="1277.21" y2="251.94" stroke="black" stroke-width="54" stroke-linecap="butt"/><line x1="1148.00" y1="486.00" x2="1277.21" y2="251.94" stroke="rgb(61,58,140)" stroke-width="46" stroke-linecap="butt"/></g><g><circle cx="1316.00" cy="298.00" r="27.00" fill="black"/><circle cx="1316.00" cy="298.00" r="23.00" fill="rgb(123,113,214)"/><line x1="1316.00" y1="298.00" x2="1186.79" y2="532.06" stroke="black" stroke-width="54" stroke-linecap="butt"/><line x1="1316.00" y1="298.00" x2="1186.79" y2="532.06" stroke="rgb(123,113,214)" stroke-width="46" stroke-linecap="butt"/></g><g><circle cx="1260.00" cy="516.00" r="27.00" fill="black"/><circle cx="1260.00" cy="516.00" r="23.00" fill="rgb(123,113,214)"/><line x1="1260.00" y1="516.00" x2="1361.23" y2="332.62" stroke="black" stroke-width="54" stroke-linecap="butt"/><line x1="1260.00" y1="516.00" x2="1361.23" y2="332.62" stroke="rgb(123,113,214)" stroke-width="46" stroke-linecap="butt"/></g><g><circle cx="1356.00" cy="364.00" r="27.00" fill="black"/><circle cx="1356.00" cy="364.00" r="23.00" fill="rgb(255,255,255)"/><line x1="1356.00" y1="364.00" x2="1172.64" y2="262.74" stroke="black" stroke-width="54" stroke-linecap="butt"/><line x1="1356.00" y1="364.00" x2="1172.64" y2="262.74" stroke="rgb(255,255,255)" stroke-width="46" stroke-linecap="butt"/></g><g><circle cx="1138.00" cy="308.00" r="27.00" fill="black"/><circle cx="1138.00" cy="308.00" r="23.00" fill="rgb(255,255,255)"/><line x1="1138.00" y1="308.00" x2="1372.01" y2="437.24" stroke="black" stroke-width="54" stroke-linecap="butt"/><line x1="1138.00" y1="308.00" x2="1372.01" y2="437.24" stroke="rgb(255,255,255)" stroke-width="46" stroke-linecap="butt"/></g><g><circle cx="1326.00" cy="476.00" r="27.00" fill="black"/><circle cx="1326.00" cy="476.00" r="23.00" fill="rgb(85,170,0)"/><line x1="1326.00" y1="476.00" x2="1091.99" y2="346.76" stroke="black" stroke-width="54" stroke-linecap="butt"/><line x1="1326.00" y1="476.00" x2="1091.99" y2="346.76" stroke="rgb(85,170,0)" stroke-width="46" stroke-linecap="butt"/></g><g><circle cx="1108.00" cy="420.00" r="27.00" fill="black"/><circle cx="1108.00" cy="420.00" r="23.00" fill="rgb(85,170,0)"/><line x1="1108.00" y1="420.00" x2="1291.36" y2="521.26" stroke="black" stroke-width="54" stroke-linecap="butt"/><line x1="1108.00" y1="420.00" x2="1291.36" y2="521.26" stroke="rgb(85,170,0)" stroke-width="46" stroke-linecap="butt"/></g><g mask="url(#f2_m_3_4_1_5)"><circle cx="1204.00" cy="268.00" r="27.00" fill="black"/><circle cx="1204.00" cy="268.00" r="23.00" fill="rgb(61,58,140)"/><line x1="1204.00" y1="268.00" x2="1102.77" y2="451.38" stroke="black" stroke-width="54" stroke-linecap="butt"/><line x1="1204.00" y1="268.00" x2="1102.77" y2="451.38" stroke="rgb(61,58,140)" stroke-width="46" stroke-linecap="butt"/></g><g mask="url(#f2_m_3_4_2_5)"><circle cx="1204.00" cy="268.00" r="27.00" fill="black"/><circle cx="1204.00" cy="268.00" r="23.00" fill="rgb(61,58,140)"/><line x1="1204.00" y1="268.00" x2="1102.77" y2="451.38" stroke="black" stroke-width="54" stroke-linecap="butt"/><line x1="1204.00" y1="268.00" x2="1102.77" y2="451.38" stroke="rgb(61,58,140)" stroke-width="46" stroke-linecap="butt"/></g><g mask="url(#f2_m_3_5_1_4)"><circle cx="1148.00" cy="486.00" r="27.00" fill="black"/><circle cx="1148.00" cy="486.00" r="23.00" fill="rgb(61,58,140)"/><line x1="1148.00" y1="486.00" x2="1277.21" y2="251.94" stroke="black" stroke-width="54" stroke-linecap="butt"/><line x1="1148.00" y1="486.00" x2="1277.21" y2="251.94" stroke="rgb(61,58,140)" stroke-width="46" stroke-linecap="butt"/></g><g mask="url(#f2_m_3_5_2_4)"><circle cx="1148.00" cy="486.00" r="27.00" fill="black"/><circle cx="1148.00" cy="486.00" r="23.00" fill="rgb(61,58,140)"/><line x1="1148.00" y1="486.00" x2="1277.21" y2="251.94" stroke="black" stroke-width="54" stroke-linecap="butt"/><line x1="1148.00" y1="486.00" x2="1277.21" y2="251.94" stroke="rgb(61,58,140)" stroke-width="46" stroke-linecap="butt"/></g><g mask="url(#f2_m_4_4_1_5)"><circle cx="1316.00" cy="298.00" r="27.00" fill="black"/><circle cx="1316.00" cy="298.00" r="23.00" fill="rgb(123,113,214)"/><line x1="1316.00" y1="298.00" x2="1186.79" y2="532.06" stroke="black" stroke-width="54" stroke-linecap="butt"/><line x1="1316.00" y1="298.00" x2="1186.79" y2="532.06" stroke="rgb(123,113,214)" stroke-width="46" stroke-linecap="butt"/></g><g mask="url(#f2_m_4_4_2_5)"><circle cx="1316.00" cy="298.00" r="27.00" fill="black"/><circle cx="1316.00" cy="298.00" r="23.00" fill="rgb(123,113,214)"/><line x1="1316.00" y1="298.00" x2="1186.79" y2="532.06" stroke="black" stroke-width="54" stroke-linecap="butt"/><line x1="1316.00" y1="298.00" x2="1186.79" y2="532.06" stroke="rgb(123,113,214)" stroke-width="46" stroke-linecap="butt"/></g><g mask="url(#f2_m_4_5_1_4)"><circle cx="1260.00" cy="516.00" r="27.00" fill="black"/><circle cx="1260.00" cy="516.00" r="23.00" fill="rgb(123,113,214)"/><line x1="1260.00" y1="516.00" x2="1361.23" y2="332.62" stroke="black" stroke-width="54" stroke-linecap="butt"/><line x1="1260.00" y1="516.00" x2="1361.23" y2="332.62" stroke="rgb(123,113,214)" stroke-width="46" stroke-linecap="butt"/></g><g mask="url(#f2_m_4_5_2_4)"><circle cx="1260.00" cy="516.00" r="27.00" fill="black"/><circle cx="1260.00" cy="516.00" r="23.00" fill="rgb(123,113,214)"/><line x1="1260.00" y1="516.00" x2="1361.23" y2="332.62" stroke="black" stroke-width="54" stroke-linecap="butt"/><line x1="1260.00" y1="516.00" x2="1361.23" y2="332.62" stroke="rgb(123,113,214)" stroke-width="46" stroke-linecap="butt"/></g><g><circle cx="1277.21" cy="251.94" r="27.00" fill="black"/><circle cx="1277.21" cy="251.94" r="23.00" fill="rgb(61,58,140)"/><line x1="1277.21" y1="251.94" x2="1042.06" y2="424.68" stroke="black" stroke-width="54" stroke-linecap="butt"/><line x1="1277.21" y1="251.94" x2="1042.06" y2="424.68" stroke="rgb(61,58,140)" stroke-width="46" stroke-linecap="butt"/></g><g><circle cx="1102.77" cy="451.38" r="27.00" fill="black"/><circle cx="1102.77" cy="451.38" r="23.00" fill="rgb(61,58,140)"/><line x1="1102.77" y1="451.38" x2="1359.49" y2="262.80" stroke="black" stroke-width="54" stroke-linecap="butt"/><line x1="1102.77" y1="451.38" x2="1359.49" y2="262.80" stroke="rgb(61,58,140)" stroke-width="46" stroke-linecap="butt"/></g><g><circle cx="1361.23" cy="332.62" r="27.00" fill="black"/><circle cx="1361.23" cy="332.62" r="23.00" fill="rgb(123,113,214)"/><line x1="1361.23" y1="332.62" x2="1104.51" y2="521.20" stroke="black" stroke-width="54" stroke-linecap="butt"/><line x1="1361.23" y1="332.62" x2="1104.51" y2="521.20" stroke="rgb(123,113,214)" stroke-width="46" stroke-linecap="butt"/></g><g><circle cx="1186.79" cy="532.06" r="27.00" fill="black"/><circle cx="1186.79" cy="532.06" r="23.00" fill="rgb(123,113,214)"/><line x1="1186.79" y1="532.06" x2="1421.94" y2="359.32" stroke="black" stroke-width="54" stroke-linecap="butt"/><line x1="1186.79" y1="532.06" x2="1421.94" y2="359.32" stroke="rgb(123,113,214)" stroke-width="46" stroke-linecap="butt"/></g><g><circle cx="1372.01" cy="437.24" r="27.00" fill="black"/><circle cx="1372.01" cy="437.24" r="23.00" fill="rgb(255,255,255)"/><line x1="1372.01" y1="437.24" x2="1199.37" y2="202.04" stroke="black" stroke-width="54" stroke-linecap="butt"/><line x1="1372.01" y1="437.24" x2="1199.37" y2="202.04" stroke="rgb(255,255,255)" stroke-width="46" stroke-linecap="butt"/></g><g><circle cx="1172.64" cy="262.74" r="27.00" fill="black"/><circle cx="1172.64" cy="262.74" r="23.00" fill="rgb(255,255,255)"/><line x1="1172.64" y1="262.74" x2="1361.14" y2="519.53" stroke="black" stroke-width="54" stroke-linecap="butt"/><line x1="1172.64" y1="262.74" x2="1361.14" y2="519.53" stroke="rgb(255,255,255)" stroke-width="46" stroke-linecap="butt"/></g><g><circle cx="1291.36" cy="521.26" r="27.00" fill="black"/><circle cx="1291.36" cy="521.26" r="23.00" fill="rgb(85,170,0)"/><line x1="1291.36" y1="521.26" x2="1102.86" y2="264.47" stroke="black" stroke-width="54" stroke-linecap="butt"/><line x1="1291.36" y1="521.26" x2="1102.86" y2="264.47" stroke="rgb(85,170,0)" stroke-width="46" stroke-linecap="butt"/></g><g><circle cx="1091.99" cy="346.76" r="27.00" fill="black"/><circle cx="1091.99" cy="346.76" r="23.00" fill="rgb(85,170,0)"/><line x1="1091.99" y1="346.76" x2="1264.63" y2="581.96" stroke="black" stroke-width="54" stroke-linecap="butt"/><line x1="1091.99" y1="346.76" x2="1264.63" y2="581.96" stroke="rgb(85,170,0)" stroke-width="46" stroke-linecap="butt"/></g><g mask="url(#f2_m_3_7_1_6)"><circle cx="1277.21" cy="251.94" r="27.00" fill="black"/><circle cx="1277.21" cy="251.94" r="23.00" fill="rgb(61,58,140)"/><line x1="1277.21" y1="251.94" x2="1042.06" y2="424.68" stroke="black" stroke-width="54" stroke-linecap="butt"/><line x1="1277.21" y1="251.94" x2="1042.06" y2="424.68" stroke="rgb(61,58,140)" stroke-width="46" stroke-linecap="butt"/></g><g mask="url(#f2_m_3_7_2_6)"><circle cx="1277.21" cy="251.94" r="27.00" fill="black"/><circle cx="1277.21" cy="251.94" r="23.00" fill="rgb(61,58,140)"/><line x1="1277.21" y1="251.94" x2="1042.06" y2="424.68" stroke="black" stroke-width="54" stroke-linecap="butt"/><line x1="1277.21" y1="251.94" x2="1042.06" y2="424.68" stroke="rgb(61,58,140)" stroke-width="46" stroke-linecap="butt"/></g><g mask="url(#f2_m_3_6_1_7)"><circle cx="1102.77" cy="451.38" r="27.00" fill="black"/><circle cx="1102.77" cy="451.38" r="23.00" fill="rgb(61,58,140)"/><line x1="1102.77" y1="451.38" x2="1359.49" y2="262.80" stroke="black" stroke-width="54" stroke-linecap="butt"/><line x1="1102.77" y1="451.38" x2="1359.49" y2="262.80" stroke="rgb(61,58,140)" stroke-width="46" stroke-linecap="butt"/></g><g mask="url(#f2_m_3_6_2_7)"><circle cx="1102.77" cy="451.38" r="27.00" fill="black"/><circle cx="1102.77" cy="451.38" r="23.00" fill="rgb(61,58,140)"/><line x1="1102.77" y1="451.38" x2="1359.49" y2="262.80" stroke="black" stroke-width="54" stroke-linecap="butt"/><line x1="1102.77" y1="451.38" x2="1359.49" y2="262.80" stroke="rgb(61,58,140)" stroke-width="46" stroke-linecap="butt"/></g><g mask="url(#f2_m_4_7_1_6)"><circle cx="1361.23" cy="332.62" r="27.00" fill="black"/><circle cx="1361.23" cy="332.62" r="23.00" fill="rgb(123,113,214)"/><line x1="1361.23" y1="332.62" x2="1104.51" y2="521.20" stroke="black" stroke-width="54" stroke-linecap="butt"/><line x1="1361.23" y1="332.62" x2="1104.51" y2="521.20" stroke="rgb(123,113,214)" stroke-width="46" stroke-linecap="butt"/></g><g mask="url(#f2_m_4_7_2_6)"><circle cx="1361.23" cy="332.62" r="27.00" fill="black"/><circle cx="1361.23" cy="332.62" r="23.00" fill="rgb(123,113,214)"/><line x1="1361.23" y1="332.62" x2="1104.51" y2="521.20" stroke="black" stroke-width="54" stroke-linecap="butt"/><line x1="1361.23" y1="332.62" x2="1104.51" y2="521.20" stroke="rgb(123,113,214)" stroke-width="46" stroke-linecap="butt"/></g><g mask="url(#f2_m_4_6_1_7)"><circle cx="1186.79" cy="532.06" r="27.00" fill="black"/><circle cx="1186.79" cy="532.06" r="23.00" fill="rgb(123,113,214)"/><line x1="1186.79" y1="532.06" x2="1421.94" y2="359.32" stroke="black" stroke-width="54" stroke-linecap="butt"/><line x1="1186.79" y1="532.06" x2="1421.94" y2="359.32" stroke="rgb(123,113,214)" stroke-width="46" stroke-linecap="butt"/></g><g mask="url(#f2_m_4_6_2_7)"><circle cx="1186.79" cy="532.06" r="27.00" fill="black"/><circle cx="1186.79" cy="532.06" r="23.00" fill="rgb(123,113,214)"/><line x1="1186.79" y1="532.06" x2="1421.94" y2="359.32" stroke="black" stroke-width="54" stroke-linecap="butt"/><line x1="1186.79" y1="532.06" x2="1421.94" y2="359.32" stroke="rgb(123,113,214)" stroke-width="46" stroke-linecap="butt"/></g><text x="1017.8" y="442.5" font-family="ui-monospace,monospace" font-size="21.5" font-weight="700" text-anchor="middle" dominant-baseline="central" fill="#111" stroke="#fff" stroke-width="6.0" paint-order="stroke">3_7</text><text x="1383.7" y="245.0" font-family="ui-monospace,monospace" font-size="21.5" font-weight="700" text-anchor="middle" dominant-baseline="central" fill="#111" stroke="#fff" stroke-width="6.0" paint-order="stroke">3_6</text><text x="1080.3" y="539.0" font-family="ui-monospace,monospace" font-size="21.5" font-weight="700" text-anchor="middle" dominant-baseline="central" fill="#111" stroke="#fff" stroke-width="6.0" paint-order="stroke">4_7</text><text x="1446.2" y="341.5" font-family="ui-monospace,monospace" font-size="21.5" font-weight="700" text-anchor="middle" dominant-baseline="central" fill="#111" stroke="#fff" stroke-width="6.0" paint-order="stroke">4_6</text><text x="1181.6" y="177.8" font-family="ui-monospace,monospace" font-size="21.5" font-weight="700" text-anchor="middle" dominant-baseline="central" fill="#111" stroke="#fff" stroke-width="6.0" paint-order="stroke">1_6</text><text x="1378.9" y="543.8" font-family="ui-monospace,monospace" font-size="21.5" font-weight="700" text-anchor="middle" dominant-baseline="central" fill="#111" stroke="#fff" stroke-width="6.0" paint-order="stroke">1_7</text><text x="1085.1" y="240.2" font-family="ui-monospace,monospace" font-size="21.5" font-weight="700" text-anchor="middle" dominant-baseline="central" fill="#111" stroke="#fff" stroke-width="6.0" paint-order="stroke">2_6</text><text x="1282.4" y="606.2" font-family="ui-monospace,monospace" font-size="21.5" font-weight="700" text-anchor="middle" dominant-baseline="central" fill="#111" stroke="#fff" stroke-width="6.0" paint-order="stroke">2_7</text></svg>